<svg width="76" height="75" viewBox="0 0 76 75" fill="none" xmlns="http://www.w3.org/2000/svg">
<path d="M53.5681 53.5681H17.1008C15.8302 53.5706 14.5716 53.3224 13.3972 52.8376C12.2227 52.3527 11.1555 51.6409 10.2567 50.7428L2.79731 43.2834C1.00087 41.4721 -0.00492834 39.023 1.94784e-05 36.472V17.1008C-0.00253257 15.8302 0.245716 14.5716 0.730533 13.3972C1.21535 12.2227 1.9272 11.1555 2.82528 10.2567L10.2847 2.79731C12.0977 1.00059 14.5483 -0.00514324 17.1008 1.97807e-05H53.5681V10.723H20.3596C17.8046 10.7254 15.3549 11.7415 13.5482 13.5482C11.7415 15.3549 10.7254 17.8046 10.723 20.3596V33.2085C10.723 35.7651 11.7379 38.2172 13.5449 40.0259C15.3519 41.8346 17.803 42.852 20.3596 42.8545H53.5681V53.5681Z" fill="#007BFF"/>
<path d="M21.4459 21.4459H57.9179C60.4657 21.4434 62.911 22.4491 64.72 24.2432L72.1794 31.7026C73.9884 33.5116 75.0046 35.9651 75.0046 38.5234V57.8946C75.0046 60.4529 73.9884 62.9063 72.1794 64.7153L64.72 72.1747C62.911 73.9837 60.4575 75 57.8992 75H21.4459V64.2771H54.6544C57.2127 64.2771 59.6661 63.2608 61.4751 61.4518C63.2841 59.6428 64.3004 57.1894 64.3004 54.6311V41.7869C64.3004 39.2286 63.2841 36.7751 61.4751 34.9661C59.6661 33.1572 57.2127 32.1409 54.6544 32.1409H21.4459V21.4459Z" fill="#007BFF"/>
</svg>
